# xmcd
#
# Track frame offsets:
#	150
#	19945
#	38504
#	57684
#	75135
#	92816
#	114519
#	136981
#	159551
#	177088
#	196204
#	213873
#	231960
#	250052
#	268815
#	288674
#	314311
#
# Disc length: 4518 seconds
#
# Revision: 1
# Processed by: cddbd v1.5.2PL0 Copyright (c) Steve Scherf et al.
# Submitted via: audiograbber 1.83.01
#
DISCID=e711a411
DTITLE=Faith Hill - Chartbusters Greatest Hits Faith Hill Vol 2
DYEAR=1900
DGENRE=Karaoke
TTITLE0=Let's Make Love
TTITLE1=Love is a Sweet Thing
TTITLE2=Breathe
TTITLE3=Bringing Out the Elvis
TTITLE4=If My Heart Had Wings
TTITLE5=That's How Love Moves
TTITLE6=If I Should Fall Behind
TTITLE7=There Will Come a Day
TTITLE8=You Give Me Love
TTITLE9=It Will Be Me
TTITLE10=I Got My Baby
TTITLE11=If I'm Not In Love
TTITLE12=Cry
TTITLE13=Unsaveable
TTITLE14=Baby You Belong
TTITLE15=What's In It for Me
TTITLE16=When You Cry
EXTD=
EXTT0=
EXTT1=
EXTT2=
EXTT3=
EXTT4=
EXTT5=
EXTT6=
EXTT7=
EXTT8=
EXTT9=
EXTT10=
EXTT11=
EXTT12=
EXTT13=
EXTT14=
EXTT15=
EXTT16=
PLAYORDER=
